HIERARCHY
ROOT Hips
{
	OFFSET 0.000000 0.000000 0.000000 
	CHANNELS 6 Xposition Yposition Zposition Yrotation Zrotation Xrotation 
	JOINT Lumbar
	{
		OFFSET 0.000000 0.000000 0.000000 
		CHANNELS 3 Zrotation Xrotation Yrotation
		JOINT Neck
		{
			OFFSET 0.000000 0.445665 0.000000 
			CHANNELS 3 Zrotation Xrotation Yrotation
			End Site
			{
				OFFSET 0.000000 0.227535 0.000000 
			}
		}
		JOINT RightShoulder
		{
			OFFSET 0.019635 0.377685 0.194865 
			CHANNELS 3 Zrotation Xrotation Yrotation
			JOINT RightElbow
			{
				OFFSET 0.000000 -0.243375 0.000000 
				CHANNELS 2 Zrotation Yrotation
				JOINT RightWrist
				{
					OFFSET 0.000000 -0.264825 0.000000 
					CHANNELS 2 Zrotation Xrotation
					End Site
					{
						OFFSET 0.006600 -0.176220 0.000990 
					}
				}
			}
		}
		JOINT LeftShoulder
		{
			OFFSET 0.019635 0.377685 -0.194865 
			CHANNELS 3 Zrotation Xrotation Yrotation
			JOINT LeftElbow
			{
				OFFSET 0.000000 -0.243375 0.000000 
				CHANNELS 2 Zrotation Yrotation
				JOINT LeftWrist
				{
					OFFSET 0.000000 -0.264825 0.000000 
					CHANNELS 2 Zrotation Xrotation
					End Site
					{
						OFFSET 0.006600 -0.176220 -0.000990 
					}
				}
			}
		}
	}
	JOINT RightHip
	{
		OFFSET 0.052140 -0.069960 0.075570 
		CHANNELS 3 Zrotation Xrotation Yrotation
		JOINT RightKnee
		{
			OFFSET 0.000000 -0.402270 0.000000 
			CHANNELS 1 Zrotation
			JOINT RightAnkle
			{
				OFFSET 0.000000 -0.404085 0.000000 
				CHANNELS 3 Zrotation Xrotation Yrotation
				End Site
				{
					OFFSET 0.204105 -0.089430 0.008415 
				}
			}
		}
	}
	JOINT LeftHip
	{
		OFFSET 0.052140 -0.069960 -0.075570 
		CHANNELS 3 Zrotation Xrotation Yrotation
		JOINT LeftKnee
		{
			OFFSET 0.000000 -0.402270 0.000000 
			CHANNELS 1 Zrotation
			JOINT LeftAnkle
			{
				OFFSET 0.000000 -0.404085 0.000000 
				CHANNELS 3 Zrotation Xrotation Yrotation
				End Site
				{
					OFFSET 0.204105 -0.089430 -0.008415 
				}
			}
		}
	}
}
MOTION
Frames: 35
Frame Time: 0.02
0 0.95578 -0 178.14931 0 3.70253 4.31134 -1.32683 -1.25271 -28.48024 3.09927 1.74876 21.33952 -13.60155 3.54902 10.85059 84.8455 0.1041 1.20584 22.95705 6.09767 -19.64138 7.89323 -74.3119 -6.86447 0.02553 4.04821 2.73713 17.7843 -22.33966 13.50538 -12.26059 -15.168 2.39279 -4.99084 -10.09913 -15.38005 8.14339 8.04338 13.06875
-0.00089 0.95538 0.00029 178.10795 0 3.72754 4.62262 -1.32036 -0.96745 -28.69538 2.8849 1.60612 21.50279 -13.32641 3.46181 10.73154 84.66117 0.08301 1.16689 23.13028 6.27788 -18.75202 7.88567 -74.32742 -6.85187 0.06259 4.05046 2.70201 17.68093 -22.3292 13.05505 -11.80696 -15.15169 2.32159 -5.03062 -9.79313 -15.27884 7.9575 7.94087 13.03895
-0.00178 0.95497 0.00058 178.067 0 3.7521 4.93293 -1.31367 -0.68409 -28.90986 2.67197 1.46472 21.6659 -13.05331 3.3765 10.61315 84.47815 0.06198 1.12847 23.30309 6.45604 -17.8666 7.87796 -74.34226 -6.83939 0.09895 4.05181 2.6671 17.57759 -22.31751 12.60768 -11.35658 -15.13508 2.25068 -5.06992 -9.48964 -15.17863 7.77319 7.83926 13.00945
-0.00268 0.95458 0.00086 178.0274 0 3.77498 5.24239 -1.30581 -0.40522 -29.12478 2.46287 1.32687 21.83033 -12.78548 3.29615 10.49578 84.29919 0.0413 1.0926 23.47681 6.62697 -16.98599 7.86942 -74.35481 -6.82714 0.13207 4.04906 2.63254 17.47308 -22.29965 12.1676 -10.91474 -15.11679 2.18004 -5.10756 -9.1936 -15.08092 7.59316 7.74021 12.98078
-0.00355 0.95412 0.00116 177.9808 0 3.8066 5.55637 -1.30389 -0.10216 -29.33856 2.23365 1.17018 21.98821 -12.48949 3.18738 10.37247 84.09951 0.01915 1.04423 23.64683 6.83521 -16.07714 7.86509 -74.37982 -6.81353 0.18139 4.06743 2.59591 17.37442 -22.3131 11.68872 -10.42764 -15.107 2.10774 -5.15386 -8.85857 -14.96938 7.39019 7.62754 12.94757
-0.00448 0.95381 0.00143 177.94897 0 3.81983 5.86045 -1.28956 0.14912 -29.55376 2.04713 1.05353 22.15946 -12.25348 3.14028 10.26223 83.94331 -0.00016 1.02166 23.82372 6.96501 -15.23082 7.85201 -74.37822 -6.80291 0.19703 4.04154 2.56384 17.26374 -22.26126 11.29252 -10.03678 -15.07953 2.0392 -5.18191 -8.60604 -14.88758 7.23609 7.54385 12.92408
-0.00562 0.9539 0.00164 177.95934 0 3.77979 6.14493 -1.23806 0.26174 -29.7857 1.9786 1.04796 22.37661 -12.1816 3.25598 10.18299 83.9119 -0.00949 1.07831 24.03189 6.86818 -14.52401 7.81201 -74.30257 -6.79974 0.11125 3.88455 2.54284 17.11311 -22.01288 11.12075 -9.91031 -14.9982 1.97788 -5.15726 -8.58525 -14.88539 7.21633 7.5403 12.92706
-0.00681 0.95414 0.00183 177.98441 0 3.72159 6.41829 -1.1745 0.32141 -30.01709 1.95318 1.08268 22.60588 -12.1705 3.43519 10.11774 83.9235 -0.01632 1.15972 24.24506 6.69386 -13.88569 7.76358 -74.20016 -6.79972 -0.00713 3.68433 2.52669 16.95138 -21.70124 11.03298 -9.8811 -14.89983 1.92082 -5.11455 -8.6471 -14.9136 7.24596 7.56597 12.93992
-0.00796 0.9543 0.00202 178.00181 0 3.67325 6.69212 -1.11824 0.40262 -30.24051 1.90783 1.09868 22.82399 -12.13246 3.59072 10.04934 83.91231 -0.02578 1.22452 24.44804 6.56147 -13.2367 7.72076 -74.11018 -6.79883 -0.10518 3.50949 2.50927 16.79894 -21.42885 10.90908 -9.80812 -14.81243 1.86381 -5.08157 -8.66846 -14.92965 7.2534 7.57825 12.94852
-0.00919 0.95451 0.00224 178.02327 0 3.61813 6.98538 -1.05426 0.49445 -30.49809 1.86362 1.11655 23.06578 -12.09146 3.7254 9.96761 83.91478 -0.02916 1.31143 24.68393 6.40097 -12.50134 7.67057 -74.01877 -6.7957 -0.22633 3.31054 2.48794 16.62871 -21.11242 10.77655 -9.73333 -14.71148 1.79855 -5.0422 -8.7018 -14.93907 7.25991 7.59111 12.95617
-0.01027 0.95465 0.00239 178.03991 0 3.57284 7.23536 -1.00357 0.55157 -30.68501 1.82769 1.13994 23.2613 -12.0712 3.91727 9.91673 83.89905 -0.04433 1.35879 24.85304 6.28035 -11.96231 7.63359 -73.92437 -6.79781 -0.30734 3.15143 2.47585 16.49277 -20.8724 10.682 -9.68544 -14.63464 1.75133 -5.01178 -8.73032 -14.9691 7.27991 7.60957 12.96812
-0.01089 0.95457 0.0024 178.0383 0 3.55901 7.36994 -0.99167 0.52601 -30.67145 1.80018 1.16992 23.32425 -12.09183 4.26274 9.9495 83.82216 -0.09491 1.28549 24.8312 6.29116 -11.94717 7.63647 -73.82512 -6.8152 -0.26745 3.11389 2.48874 16.45533 -20.8615 10.67126 -9.68776 -14.62916 1.75426 -5.0111 -8.721 -15.0523 7.3266 7.63767 12.98958
-0.01135 0.95442 0.00235 178.03156 0 3.55575 7.461 -0.99369 0.46737 -30.58752 1.78012 1.20383 23.34014 -12.13138 4.66122 10.0125 83.72561 -0.15697 1.17251 24.74264 6.34444 -12.12775 7.65284 -73.72454 -6.83753 -0.1864 3.11781 2.51066 16.4526 -20.92928 10.69599 -9.7139 -14.64844 1.77498 -5.01993 -8.70478 -15.15461 7.38491 7.6702 13.01501
-0.01188 0.95431 0.00232 178.02806 0 3.54774 7.57117 -0.98989 0.42365 -30.53985 1.75936 1.23518 23.37932 -12.16345 5.02841 10.06041 83.63822 -0.21236 1.08126 24.6886 6.3766 -12.21935 7.66194 -73.62643 -6.85647 -0.12556 3.10205 2.52799 16.43319 -20.95919 10.70475 -9.72925 -14.65595 1.78656 -5.024 -8.69454 -15.24558 7.43685 7.69979 13.03857
-0.01243 0.95418 0.0023 178.02129 0 3.53885 7.68411 -0.98355 0.37832 -30.47544 1.72927 1.27126 23.41265 -12.19349 5.42928 10.11441 83.55109 -0.27401 0.97536 24.61846 6.4133 -12.31243 7.67486 -73.51881 -6.88007 -0.05959 3.08813 2.54742 16.41706 -20.99545 10.71561 -9.74764 -14.66497 1.80253 -5.0293 -8.6752 -15.34832 7.49494 7.73414 13.06272
-0.0129 0.95407 0.00225 178.01984 0 3.53456 7.78067 -0.98593 0.32948 -30.42751 1.71919 1.29783 23.44461 -12.23073 5.77042 10.16285 83.45856 -0.32512 0.89009 24.56412 6.4522 -12.44933 7.68399 -73.43189 -6.89544 0.00598 3.08103 2.56471 16.40271 -21.03847 10.72969 -9.76432 -14.67706 1.81382 -5.03452 -8.67205 -15.43131 7.54256 7.75948 13.08651
-0.0132 0.95404 0.00211 178.03495 0 3.54026 7.84661 -1.00953 0.27687 -30.45825 1.76774 1.29779 23.50473 -12.28923 5.94515 10.1874 83.35261 -0.34641 0.87274 24.58658 6.48228 -12.6472 7.67176 -73.39512 -6.88377 0.05956 3.08077 2.57273 16.383 -21.07729 10.74135 -9.768 -14.69058 1.80493 -5.03715 -8.71516 -15.44961 7.55626 7.75677 13.10785
-0.01344 0.95404 0.00193 178.05538 0 3.55038 7.89716 -1.04148 0.22261 -30.50608 1.83504 1.28783 23.56217 -12.35296 6.05564 10.20538 83.24228 -0.35628 0.87729 24.62497 6.51425 -12.8838 7.65655 -73.38048 -6.8641 0.11146 3.08648 2.5785 16.36432 -21.12134 10.75515 -9.76912 -14.70664 1.79111 -5.03946 -8.77434 -15.4482 7.55922 7.7451 13.1287
-0.0137 0.95402 0.00176 178.07296 0 3.55861 7.95188 -1.06922 0.1707 -30.53428 1.89005 1.2817 23.6062 -12.4099 6.18745 10.22712 83.13599 -0.37008 0.87068 24.64384 6.54886 -13.11096 7.6479 -73.36101 -6.85022 0.16507 3.09089 2.586 16.3463 -21.16551 10.76921 -9.77246 -14.72225 1.78154 -5.04204 -8.82587 -15.45935 7.56825 7.73877 13.15005
-0.01398 0.95402 0.00161 178.09234 0 3.56654 8.01586 -1.09887 0.11055 -30.60576 1.961 1.27823 23.70649 -12.48581 6.35371 10.24691 83.02058 -0.38975 0.86721 24.70855 6.5706 -13.31272 7.61835 -73.32053 -6.8278 0.21683 3.09082 2.59076 16.32449 -21.20124 10.77918 -9.77209 -14.73564 1.76456 -5.04445 -8.87887 -15.45623 7.5726 7.72726 13.17047
-0.01422 0.954 0.0014 178.10913 0 3.5762 8.05887 -1.12673 0.06798 -30.59755 2.00341 1.26726 23.69442 -12.52368 6.43309 10.26849 82.92313 -0.39411 0.86368 24.68703 6.61846 -13.57127 7.63067 -73.32771 -6.82072 0.27063 3.10089 2.60068 16.31066 -21.25551 10.79796 -9.77871 -14.75407 1.76105 -5.04697 -8.93246 -15.47759 7.58408 7.72434 13.19256
-0.01433 0.95393 0.00107 178.11893 0 3.58796 8.03618 -1.14405 0.07137 -30.3197 1.95929 1.23408 23.33292 -12.45059 6.28122 10.2991 82.87841 -0.3605 0.84827 24.38554 6.74319 -13.99922 7.76603 -73.47322 -6.86164 0.33764 3.13763 2.62433 16.31551 -21.35271 10.83808 -9.80337 -14.78446 1.80061 -5.05013 -8.98597 -15.57391 7.61698 7.74726 13.22018
-0.01442 0.95384 0.00068 178.12581 0 3.60153 7.9954 -1.15981 0.09305 -29.9707 1.88606 1.19433 22.86718 -12.3396 6.04554 10.33115 82.85161 -0.31134 0.83343 24.00497 6.8932 -14.4775 7.94227 -73.66384 -6.91732 0.40506 3.18389 2.65337 16.32844 -21.46886 10.88725 -9.83537 -14.81985 1.8529 -5.05326 -9.03924 -15.69496 7.65755 7.77912 13.24936
-0.01455 0.95376 0.0003 178.13293 0 3.61531 7.97057 -1.17859 0.10878 -29.68336 1.82851 1.16027 22.47413 -12.24914 5.85211 10.36076 82.8153 -0.26851 0.82268 23.68476 7.02767 -14.91771 8.0954 -73.82564 -6.96407 0.46759 3.22578 2.6806 16.33997 -21.58115 10.93377 -9.86512 -14.85388 1.89624 -5.05629 -9.09104 -15.80298 7.69512 7.80691 13.2773
-0.01453 0.9537 -1e-05 178.14432 0 3.62505 7.9121 -1.18814 0.11534 -29.26943 1.76238 1.11479 21.96966 -12.1457 5.63738 10.39765 82.78454 -0.22921 0.79429 23.25853 7.17831 -15.42501 8.26777 -74.02264 -7.02086 0.5506 3.26908 2.70513 16.34335 -21.67552 10.97436 -9.89025 -14.88464 1.95292 -5.06004 -9.1496 -15.91803 7.73019 7.83441 13.30742
-0.01483 0.9536 -0.00049 178.14667 0 3.64337 7.92015 -1.21615 0.14427 -29.10623 1.70555 1.09122 21.67807 -12.05926 5.44985 10.41987 82.74661 -0.17799 0.80255 23.03842 7.30254 -15.80218 8.40956 -74.15763 -7.05919 0.59027 3.31036 2.73648 16.3639 -21.80923 11.02922 -9.92673 -14.92276 1.98473 -5.06198 -9.19442 -16.0244 7.77251 7.86473 13.33339
-0.01598 0.95343 -0.00138 178.12068 0 3.68636 8.11035 -1.29762 0.24028 -29.61234 1.69375 1.13313 21.94888 -12.03748 5.34231 10.40144 82.68487 -0.1064 0.91064 23.36687 7.33701 -15.82518 8.46009 -74.10344 -7.05364 0.51799 3.35472 2.78649 16.4435 -22.06755 11.12262 -9.9928 -14.98503 1.94782 -5.06168 -9.19751 -16.10422 7.83256 7.90108 13.34774
-0.01745 0.95324 -0.00243 178.08719 0 3.7374 8.36817 -1.39703 0.35655 -30.3773 1.69009 1.19636 22.44423 -12.03266 5.26866 10.36883 82.61585 -0.02189 1.05528 23.91038 7.34635 -15.71382 8.47867 -73.98691 -7.02758 0.40136 3.39484 2.84312 16.537 -22.36089 11.22962 -10.06988 -15.05357 1.88593 -5.05907 -9.18838 -16.17528 7.89988 7.94001 13.358
-0.0188 0.95306 -0.00342 178.05883 0 3.7841 8.60045 -1.48717 0.45689 -31.05454 1.67437 1.2481 22.87385 -12.01429 5.18958 10.34181 82.5492 0.06253 1.18448 24.3847 7.37373 -15.64994 8.50877 -73.90283 -7.00325 0.29896 3.42939 2.89573 16.61591 -22.62471 11.32969 -10.1421 -15.11589 1.8322 -5.05565 -9.18605 -16.24638 7.96407 7.97743 13.36975
-0.02007 0.95288 -0.00437 178.02001 0 3.8347 8.81485 -1.58308 0.58548 -31.61703 1.69224 1.30872 23.15822 -12.01861 5.0639 10.31585 82.48472 0.12358 1.3106 24.74595 7.37263 -15.63764 8.54959 -73.80123 -7.00929 0.21853 3.49508 2.95211 16.7323 -22.94684 11.43395 -10.21461 -15.19257 1.78816 -5.05992 -9.17451 -16.32924 8.02734 8.01625 13.38235
-0.02157 0.95269 -0.00545 178.00511 0 3.87788 9.07693 -1.66988 0.66079 -32.46332 1.64335 1.35413 23.78512 -11.98105 5.04636 10.28756 82.4168 0.23559 1.44953 25.38203 7.42633 -15.4948 8.5642 -73.72286 -6.94974 0.08562 3.49585 3.00303 16.77097 -23.15535 11.53171 -10.28821 -15.24081 1.72315 -5.04783 -9.18422 -16.39239 8.09469 8.05306 13.39314
-0.02383 0.95243 -0.00693 178.02577 0 3.90817 9.50398 -1.73793 0.57567 -34.18125 1.40033 1.36852 25.42984 -11.81683 5.30371 10.22857 82.31388 0.48949 1.63384 26.83544 7.62252 -14.94348 8.48103 -73.70865 -6.69393 -0.21342 3.30915 3.03014 16.61492 -23.04368 11.61569 -10.3692 -15.20833 1.5623 -4.98913 -9.21157 -16.3437 8.16728 8.08019 13.38986
-0.02628 0.95216 -0.00854 178.07745 0 3.9285 9.96711 -1.79363 0.43778 -36.14802 1.09125 1.36407 27.38851 -11.61152 5.67241 10.17313 82.21204 0.79297 1.82602 28.53829 7.87747 -14.2807 8.38075 -73.72487 -6.37882 -0.55739 3.05912 3.05315 16.37514 -22.81616 11.69118 -10.44954 -15.14701 1.39039 -4.91417 -9.26792 -16.28788 8.24466 8.1058 13.38548
-0.02852 0.95189 -0.01007 178.13535 0 3.94761 10.38157 -1.84862 0.32936 -37.90192 0.81792 1.35746 29.12058 -11.42953 6.00019 10.13391 82.1284 1.07132 2.00241 30.0537 8.11515 -13.7212 8.30716 -73.73404 -6.10105 -0.86025 2.84388 3.08226 16.1592 -22.63995 11.76561 -10.52551 -15.09935 1.25108 -4.84827 -9.34115 -16.27245 8.32234 8.13444 13.38983
-0.0313 0.95163 -0.01169 178.10458 0 3.99294 10.93609 -1.93319 0.1982 -40.08581 0.52149 1.39616 31.21416 -11.22783 6.28666 10.01792 81.96855 1.36267 2.23247 31.88678 8.31187 -12.93308 8.14375 -73.70311 -5.76917 -1.25354 2.60241 3.09238 16.00644 -22.46984 11.86141 -10.6216 -15.04987 0.99034 -4.77627 -9.29123 -16.09411 8.38906 8.15348 13.36461
